<mxfile host="app.diagrams.net" agent="Mozilla/5.0 (Macintosh; Intel Mac OS X 10_15_7) AppleWebKit/537.36 (KHTML, like Gecko) Chrome/132.0.0.0 Safari/537.36" version="26.0.16">
  <diagram name="Page-1" id="NRq3GHrlr6Nh1rH2LlKC">
    <mxGraphModel grid="1" page="1" gridSize="10" guides="1" tooltips="1" connect="1" arrows="1" fold="1" pageScale="1" pageWidth="850" pageHeight="1100" math="0" shadow="0">
      <root>
        <mxCell id="0" />
        <mxCell id="1" parent="0" />
        <mxCell id="LIH2WnuuIP5qrIeugnzf-43" value="Task" style="swimlane;fillColor=light-dark(#FF3333,var(--ge-dark-color, #121212));startSize=40;" vertex="1" parent="1">
          <mxGeometry x="356" y="-640" width="201" height="300" as="geometry" />
        </mxCell>
        <mxCell id="LIH2WnuuIP5qrIeugnzf-45" value="Task_Name" style="text;strokeColor=none;fillColor=none;align=left;verticalAlign=top;spacingLeft=4;spacingRight=4;overflow=hidden;rotatable=0;points=[[0,0.5],[1,0.5]];portConstraint=eastwest;whiteSpace=wrap;html=1;" vertex="1" parent="LIH2WnuuIP5qrIeugnzf-43">
          <mxGeometry y="83" width="80" height="26" as="geometry" />
        </mxCell>
        <mxCell id="LIH2WnuuIP5qrIeugnzf-46" value="Serverity" style="text;strokeColor=none;fillColor=none;align=left;verticalAlign=top;spacingLeft=4;spacingRight=4;overflow=hidden;rotatable=0;points=[[0,0.5],[1,0.5]];portConstraint=eastwest;whiteSpace=wrap;html=1;" vertex="1" parent="LIH2WnuuIP5qrIeugnzf-43">
          <mxGeometry y="117" width="80" height="26" as="geometry" />
        </mxCell>
        <mxCell id="LIH2WnuuIP5qrIeugnzf-47" value="Status" style="text;strokeColor=none;fillColor=none;align=left;verticalAlign=top;spacingLeft=4;spacingRight=4;overflow=hidden;rotatable=0;points=[[0,0.5],[1,0.5]];portConstraint=eastwest;whiteSpace=wrap;html=1;" vertex="1" parent="LIH2WnuuIP5qrIeugnzf-43">
          <mxGeometry x="1" y="150" width="80" height="26" as="geometry" />
        </mxCell>
        <mxCell id="LIH2WnuuIP5qrIeugnzf-48" value="Estimated_Time" style="text;strokeColor=none;fillColor=none;align=left;verticalAlign=top;spacingLeft=4;spacingRight=4;overflow=hidden;rotatable=0;points=[[0,0.5],[1,0.5]];portConstraint=eastwest;whiteSpace=wrap;html=1;" vertex="1" parent="LIH2WnuuIP5qrIeugnzf-43">
          <mxGeometry y="178" width="120" height="26" as="geometry" />
        </mxCell>
        <mxCell id="LIH2WnuuIP5qrIeugnzf-52" value="Object" style="text;strokeColor=none;fillColor=#FF9999;align=left;verticalAlign=top;spacingLeft=4;spacingRight=4;overflow=hidden;rotatable=0;points=[[0,0.5],[1,0.5]];portConstraint=eastwest;whiteSpace=wrap;html=1;" vertex="1" parent="LIH2WnuuIP5qrIeugnzf-43">
          <mxGeometry x="120" y="266" width="79" height="30" as="geometry" />
        </mxCell>
        <mxCell id="LIH2WnuuIP5qrIeugnzf-190" value="Task_ID" style="text;strokeColor=none;fillColor=none;align=left;verticalAlign=top;spacingLeft=4;spacingRight=4;overflow=hidden;rotatable=0;points=[[0,0.5],[1,0.5]];portConstraint=eastwest;whiteSpace=wrap;html=1;" vertex="1" parent="LIH2WnuuIP5qrIeugnzf-43">
          <mxGeometry y="50" width="80" height="26" as="geometry" />
        </mxCell>
        <mxCell id="LIH2WnuuIP5qrIeugnzf-236" value="Int" style="text;strokeColor=none;fillColor=none;align=left;verticalAlign=top;spacingLeft=4;spacingRight=4;overflow=hidden;rotatable=0;points=[[0,0.5],[1,0.5]];portConstraint=eastwest;whiteSpace=wrap;html=1;" vertex="1" parent="LIH2WnuuIP5qrIeugnzf-43">
          <mxGeometry x="120" y="50" width="44.5" height="26" as="geometry" />
        </mxCell>
        <mxCell id="Rqi-fr4D4mHZzR1DRXAW-7" value="String" style="text;strokeColor=none;fillColor=none;align=left;verticalAlign=top;spacingLeft=4;spacingRight=4;overflow=hidden;rotatable=0;points=[[0,0.5],[1,0.5]];portConstraint=eastwest;whiteSpace=wrap;html=1;" vertex="1" parent="LIH2WnuuIP5qrIeugnzf-43">
          <mxGeometry x="120" y="83" width="81" height="26" as="geometry" />
        </mxCell>
        <mxCell id="Rqi-fr4D4mHZzR1DRXAW-8" value="String" style="text;strokeColor=none;fillColor=none;align=left;verticalAlign=top;spacingLeft=4;spacingRight=4;overflow=hidden;rotatable=0;points=[[0,0.5],[1,0.5]];portConstraint=eastwest;whiteSpace=wrap;html=1;" vertex="1" parent="LIH2WnuuIP5qrIeugnzf-43">
          <mxGeometry x="120" y="117" width="81" height="26" as="geometry" />
        </mxCell>
        <mxCell id="Rqi-fr4D4mHZzR1DRXAW-9" value="String" style="text;strokeColor=none;fillColor=none;align=left;verticalAlign=top;spacingLeft=4;spacingRight=4;overflow=hidden;rotatable=0;points=[[0,0.5],[1,0.5]];portConstraint=eastwest;whiteSpace=wrap;html=1;" vertex="1" parent="LIH2WnuuIP5qrIeugnzf-43">
          <mxGeometry x="120" y="150" width="81" height="26" as="geometry" />
        </mxCell>
        <mxCell id="Rqi-fr4D4mHZzR1DRXAW-34" value="Float" style="text;strokeColor=none;fillColor=none;align=left;verticalAlign=top;spacingLeft=4;spacingRight=4;overflow=hidden;rotatable=0;points=[[0,0.5],[1,0.5]];portConstraint=eastwest;whiteSpace=wrap;html=1;" vertex="1" parent="LIH2WnuuIP5qrIeugnzf-43">
          <mxGeometry x="122.25" y="178" width="40" height="26" as="geometry" />
        </mxCell>
        <mxCell id="BjBpJX-8BuaDXUs7vQdQ-13" value="create_at" style="text;strokeColor=none;fillColor=none;align=left;verticalAlign=top;spacingLeft=4;spacingRight=4;overflow=hidden;rotatable=0;points=[[0,0.5],[1,0.5]];portConstraint=eastwest;whiteSpace=wrap;html=1;" vertex="1" parent="LIH2WnuuIP5qrIeugnzf-43">
          <mxGeometry x="1" y="209" width="129.23" height="28" as="geometry" />
        </mxCell>
        <mxCell id="BjBpJX-8BuaDXUs7vQdQ-14" value="Date" style="text;strokeColor=none;fillColor=none;align=left;verticalAlign=top;spacingLeft=4;spacingRight=4;overflow=hidden;rotatable=0;points=[[0,0.5],[1,0.5]];portConstraint=eastwest;whiteSpace=wrap;html=1;" vertex="1" parent="LIH2WnuuIP5qrIeugnzf-43">
          <mxGeometry x="123" y="208" width="69" height="26" as="geometry" />
        </mxCell>
        <mxCell id="BjBpJX-8BuaDXUs7vQdQ-15" value="update_at" style="text;strokeColor=none;fillColor=none;align=left;verticalAlign=top;spacingLeft=4;spacingRight=4;overflow=hidden;rotatable=0;points=[[0,0.5],[1,0.5]];portConstraint=eastwest;whiteSpace=wrap;html=1;" vertex="1" parent="LIH2WnuuIP5qrIeugnzf-43">
          <mxGeometry y="236" width="121" height="26" as="geometry" />
        </mxCell>
        <mxCell id="BjBpJX-8BuaDXUs7vQdQ-16" value="Date" style="text;strokeColor=none;fillColor=none;align=left;verticalAlign=top;spacingLeft=4;spacingRight=4;overflow=hidden;rotatable=0;points=[[0,0.5],[1,0.5]];portConstraint=eastwest;whiteSpace=wrap;html=1;" vertex="1" parent="LIH2WnuuIP5qrIeugnzf-43">
          <mxGeometry x="123" y="237" width="69" height="26" as="geometry" />
        </mxCell>
        <mxCell id="LIH2WnuuIP5qrIeugnzf-49" value="Task_Assignment" style="text;strokeColor=none;fillColor=#FF9999;align=left;verticalAlign=top;spacingLeft=4;spacingRight=4;overflow=hidden;rotatable=0;points=[[0,0.5],[1,0.5]];portConstraint=eastwest;whiteSpace=wrap;html=1;" vertex="1" parent="1">
          <mxGeometry x="357" y="-375" width="119" height="30" as="geometry" />
        </mxCell>
        <mxCell id="LIH2WnuuIP5qrIeugnzf-50" value="" style="endArrow=none;html=1;rounded=0;exitX=1.008;exitY=0.933;exitDx=0;exitDy=0;exitPerimeter=0;" edge="1" parent="1" source="LIH2WnuuIP5qrIeugnzf-49">
          <mxGeometry width="50" height="50" relative="1" as="geometry">
            <mxPoint x="476" y="-390" as="sourcePoint" />
            <mxPoint x="476" y="-600" as="targetPoint" />
          </mxGeometry>
        </mxCell>
        <mxCell id="LIH2WnuuIP5qrIeugnzf-53" value="Task_Assignment" style="swimlane;fillColor=light-dark(#FF9999,var(--ge-dark-color, #121212));startSize=40;" vertex="1" parent="1">
          <mxGeometry x="360" y="-280" width="204" height="330" as="geometry" />
        </mxCell>
        <mxCell id="LIH2WnuuIP5qrIeugnzf-55" value="Assignment_ID" style="text;strokeColor=none;fillColor=none;align=left;verticalAlign=top;spacingLeft=4;spacingRight=4;overflow=hidden;rotatable=0;points=[[0,0.5],[1,0.5]];portConstraint=eastwest;whiteSpace=wrap;html=1;" vertex="1" parent="LIH2WnuuIP5qrIeugnzf-53">
          <mxGeometry y="54" width="110" height="26" as="geometry" />
        </mxCell>
        <mxCell id="LIH2WnuuIP5qrIeugnzf-56" value="Employee_ID" style="text;strokeColor=none;fillColor=#6666FF;align=left;verticalAlign=top;spacingLeft=4;spacingRight=4;overflow=hidden;rotatable=0;points=[[0,0.5],[1,0.5]];portConstraint=eastwest;whiteSpace=wrap;html=1;" vertex="1" parent="LIH2WnuuIP5qrIeugnzf-53">
          <mxGeometry x="1" y="94" width="139" height="26" as="geometry" />
        </mxCell>
        <mxCell id="LIH2WnuuIP5qrIeugnzf-57" value="Assignment_Date" style="text;strokeColor=none;fillColor=none;align=left;verticalAlign=top;spacingLeft=4;spacingRight=4;overflow=hidden;rotatable=0;points=[[0,0.5],[1,0.5]];portConstraint=eastwest;whiteSpace=wrap;html=1;" vertex="1" parent="LIH2WnuuIP5qrIeugnzf-53">
          <mxGeometry y="134" width="110" height="26" as="geometry" />
        </mxCell>
        <mxCell id="LIH2WnuuIP5qrIeugnzf-58" value="Completion_percentage" style="text;strokeColor=none;fillColor=none;align=left;verticalAlign=top;spacingLeft=4;spacingRight=4;overflow=hidden;rotatable=0;points=[[0,0.5],[1,0.5]];portConstraint=eastwest;whiteSpace=wrap;html=1;" vertex="1" parent="LIH2WnuuIP5qrIeugnzf-53">
          <mxGeometry y="174" width="170" height="26" as="geometry" />
        </mxCell>
        <mxCell id="LIH2WnuuIP5qrIeugnzf-74" value="Approval_status" style="text;strokeColor=none;fillColor=none;align=left;verticalAlign=top;spacingLeft=4;spacingRight=4;overflow=hidden;rotatable=0;points=[[0,0.5],[1,0.5]];portConstraint=eastwest;whiteSpace=wrap;html=1;" vertex="1" parent="LIH2WnuuIP5qrIeugnzf-53">
          <mxGeometry x="-1" y="206" width="141" height="26" as="geometry" />
        </mxCell>
        <mxCell id="LIH2WnuuIP5qrIeugnzf-60" value="Feedback" style="text;strokeColor=none;fillColor=#FFCCCC;align=left;verticalAlign=top;spacingLeft=4;spacingRight=4;overflow=hidden;rotatable=0;points=[[0,0.5],[1,0.5]];portConstraint=eastwest;whiteSpace=wrap;html=1;" vertex="1" parent="LIH2WnuuIP5qrIeugnzf-53">
          <mxGeometry y="300" width="139" height="30" as="geometry" />
        </mxCell>
        <mxCell id="LIH2WnuuIP5qrIeugnzf-59" value="Object" style="text;strokeColor=none;fillColor=#FFCCCC;align=left;verticalAlign=top;spacingLeft=4;spacingRight=4;overflow=hidden;rotatable=0;points=[[0,0.5],[1,0.5]];portConstraint=eastwest;whiteSpace=wrap;html=1;" vertex="1" parent="LIH2WnuuIP5qrIeugnzf-53">
          <mxGeometry x="139" y="300" width="61" height="30" as="geometry" />
        </mxCell>
        <mxCell id="LIH2WnuuIP5qrIeugnzf-69" value="Time_log" style="text;strokeColor=none;fillColor=#FFCCCC;align=left;verticalAlign=top;spacingLeft=4;spacingRight=4;overflow=hidden;rotatable=0;points=[[0,0.5],[1,0.5]];portConstraint=eastwest;whiteSpace=wrap;html=1;" vertex="1" parent="LIH2WnuuIP5qrIeugnzf-53">
          <mxGeometry y="270" width="139" height="30" as="geometry" />
        </mxCell>
        <mxCell id="LIH2WnuuIP5qrIeugnzf-70" value="Object" style="text;strokeColor=none;fillColor=#FFCCCC;align=left;verticalAlign=top;spacingLeft=4;spacingRight=4;overflow=hidden;rotatable=0;points=[[0,0.5],[1,0.5]];portConstraint=eastwest;whiteSpace=wrap;html=1;" vertex="1" parent="LIH2WnuuIP5qrIeugnzf-53">
          <mxGeometry x="139" y="270" width="60" height="30" as="geometry" />
        </mxCell>
        <mxCell id="LIH2WnuuIP5qrIeugnzf-62" value="" style="endArrow=none;html=1;rounded=0;" edge="1" parent="LIH2WnuuIP5qrIeugnzf-53">
          <mxGeometry width="50" height="50" relative="1" as="geometry">
            <mxPoint x="-1" y="301" as="sourcePoint" />
            <mxPoint x="199" y="301" as="targetPoint" />
          </mxGeometry>
        </mxCell>
        <mxCell id="LIH2WnuuIP5qrIeugnzf-71" value="" style="endArrow=none;html=1;rounded=0;" edge="1" parent="LIH2WnuuIP5qrIeugnzf-53">
          <mxGeometry width="50" height="50" relative="1" as="geometry">
            <mxPoint y="270" as="sourcePoint" />
            <mxPoint x="200" y="270" as="targetPoint" />
          </mxGeometry>
        </mxCell>
        <mxCell id="LIH2WnuuIP5qrIeugnzf-238" value="Int" style="text;strokeColor=none;fillColor=none;align=left;verticalAlign=top;spacingLeft=4;spacingRight=4;overflow=hidden;rotatable=0;points=[[0,0.5],[1,0.5]];portConstraint=eastwest;whiteSpace=wrap;html=1;" vertex="1" parent="LIH2WnuuIP5qrIeugnzf-53">
          <mxGeometry x="140" y="54" width="44.5" height="26" as="geometry" />
        </mxCell>
        <mxCell id="LIH2WnuuIP5qrIeugnzf-239" value="Array" style="text;strokeColor=none;fillColor=#6666FF;align=left;verticalAlign=top;spacingLeft=4;spacingRight=4;overflow=hidden;rotatable=0;points=[[0,0.5],[1,0.5]];portConstraint=eastwest;whiteSpace=wrap;html=1;" vertex="1" parent="LIH2WnuuIP5qrIeugnzf-53">
          <mxGeometry x="140" y="94" width="60" height="26" as="geometry" />
        </mxCell>
        <mxCell id="Rqi-fr4D4mHZzR1DRXAW-10" value="String" style="text;strokeColor=none;fillColor=none;align=left;verticalAlign=top;spacingLeft=4;spacingRight=4;overflow=hidden;rotatable=0;points=[[0,0.5],[1,0.5]];portConstraint=eastwest;whiteSpace=wrap;html=1;" vertex="1" parent="LIH2WnuuIP5qrIeugnzf-53">
          <mxGeometry x="142" y="203" width="54" height="26" as="geometry" />
        </mxCell>
        <mxCell id="Rqi-fr4D4mHZzR1DRXAW-26" value="Date" style="text;strokeColor=none;fillColor=none;align=left;verticalAlign=top;spacingLeft=4;spacingRight=4;overflow=hidden;rotatable=0;points=[[0,0.5],[1,0.5]];portConstraint=eastwest;whiteSpace=wrap;html=1;" vertex="1" parent="LIH2WnuuIP5qrIeugnzf-53">
          <mxGeometry x="141" y="134" width="64" height="26" as="geometry" />
        </mxCell>
        <mxCell id="Rqi-fr4D4mHZzR1DRXAW-28" value="Float" style="text;strokeColor=none;fillColor=none;align=left;verticalAlign=top;spacingLeft=4;spacingRight=4;overflow=hidden;rotatable=0;points=[[0,0.5],[1,0.5]];portConstraint=eastwest;whiteSpace=wrap;html=1;" vertex="1" parent="LIH2WnuuIP5qrIeugnzf-53">
          <mxGeometry x="140.5" y="174" width="40" height="26" as="geometry" />
        </mxCell>
        <mxCell id="LXrIM6IL3QqaLGw6Vt4J-1" value="Due_date" style="text;strokeColor=none;fillColor=none;align=left;verticalAlign=top;spacingLeft=4;spacingRight=4;overflow=hidden;rotatable=0;points=[[0,0.5],[1,0.5]];portConstraint=eastwest;whiteSpace=wrap;html=1;" vertex="1" parent="LIH2WnuuIP5qrIeugnzf-53">
          <mxGeometry x="0.8899999999999864" y="240" width="129.23" height="28" as="geometry" />
        </mxCell>
        <mxCell id="LXrIM6IL3QqaLGw6Vt4J-2" value="Date" style="text;strokeColor=none;fillColor=none;align=left;verticalAlign=top;spacingLeft=4;spacingRight=4;overflow=hidden;rotatable=0;points=[[0,0.5],[1,0.5]];portConstraint=eastwest;whiteSpace=wrap;html=1;" vertex="1" parent="LIH2WnuuIP5qrIeugnzf-53">
          <mxGeometry x="142" y="239" width="64" height="26" as="geometry" />
        </mxCell>
        <mxCell id="LIH2WnuuIP5qrIeugnzf-61" value="" style="endArrow=none;html=1;rounded=0;" edge="1" parent="1">
          <mxGeometry width="50" height="50" relative="1" as="geometry">
            <mxPoint x="498" y="50" as="sourcePoint" />
            <mxPoint x="498" y="-240" as="targetPoint" />
          </mxGeometry>
        </mxCell>
        <mxCell id="LIH2WnuuIP5qrIeugnzf-64" value="embeded" style="endArrow=open;endSize=12;dashed=1;html=1;rounded=0;exitX=1;exitY=0.5;exitDx=0;exitDy=0;entryX=1;entryY=0.064;entryDx=0;entryDy=0;entryPerimeter=0;" edge="1" parent="1" source="LIH2WnuuIP5qrIeugnzf-52" target="LIH2WnuuIP5qrIeugnzf-53">
          <mxGeometry x="-0.0197" y="-30" width="160" relative="1" as="geometry">
            <mxPoint x="440" y="-280" as="sourcePoint" />
            <mxPoint x="570" y="-260" as="targetPoint" />
            <Array as="points">
              <mxPoint x="600" y="-359" />
              <mxPoint x="600" y="-260" />
            </Array>
            <mxPoint as="offset" />
          </mxGeometry>
        </mxCell>
        <mxCell id="LIH2WnuuIP5qrIeugnzf-66" value="1" style="text;strokeColor=none;fillColor=none;align=left;verticalAlign=top;spacingLeft=4;spacingRight=4;overflow=hidden;rotatable=0;points=[[0,0.5],[1,0.5]];portConstraint=eastwest;whiteSpace=wrap;html=1;" vertex="1" parent="1">
          <mxGeometry x="570" y="-394" width="20" height="26" as="geometry" />
        </mxCell>
        <mxCell id="LIH2WnuuIP5qrIeugnzf-67" value="1" style="text;strokeColor=none;fillColor=none;align=left;verticalAlign=top;spacingLeft=4;spacingRight=4;overflow=hidden;rotatable=0;points=[[0,0.5],[1,0.5]];portConstraint=eastwest;whiteSpace=wrap;html=1;" vertex="1" parent="1">
          <mxGeometry x="560" y="-250" width="20" height="26" as="geometry" />
        </mxCell>
        <mxCell id="LIH2WnuuIP5qrIeugnzf-75" value="Feedback" style="swimlane;fillColor=light-dark(#FFCCCC,var(--ge-dark-color, #121212));startSize=40;" vertex="1" parent="1">
          <mxGeometry x="170" y="90" width="209" height="110" as="geometry" />
        </mxCell>
        <mxCell id="LIH2WnuuIP5qrIeugnzf-76" value="Feedback_date" style="text;strokeColor=none;fillColor=none;align=left;verticalAlign=top;spacingLeft=4;spacingRight=4;overflow=hidden;rotatable=0;points=[[0,0.5],[1,0.5]];portConstraint=eastwest;whiteSpace=wrap;html=1;" vertex="1" parent="LIH2WnuuIP5qrIeugnzf-75">
          <mxGeometry x="1" y="44" width="109" height="26" as="geometry" />
        </mxCell>
        <mxCell id="LIH2WnuuIP5qrIeugnzf-77" value="Feedback_Comment" style="text;strokeColor=none;fillColor=none;align=left;verticalAlign=top;spacingLeft=4;spacingRight=4;overflow=hidden;rotatable=0;points=[[0,0.5],[1,0.5]];portConstraint=eastwest;whiteSpace=wrap;html=1;" vertex="1" parent="LIH2WnuuIP5qrIeugnzf-75">
          <mxGeometry x="1" y="84" width="139" height="26" as="geometry" />
        </mxCell>
        <mxCell id="LIH2WnuuIP5qrIeugnzf-88" value="Date" style="text;strokeColor=none;fillColor=none;align=left;verticalAlign=top;spacingLeft=4;spacingRight=4;overflow=hidden;rotatable=0;points=[[0,0.5],[1,0.5]];portConstraint=eastwest;whiteSpace=wrap;html=1;" vertex="1" parent="LIH2WnuuIP5qrIeugnzf-75">
          <mxGeometry x="140" y="44" width="69" height="26" as="geometry" />
        </mxCell>
        <mxCell id="LIH2WnuuIP5qrIeugnzf-90" value="String" style="text;strokeColor=none;fillColor=none;align=left;verticalAlign=top;spacingLeft=4;spacingRight=4;overflow=hidden;rotatable=0;points=[[0,0.5],[1,0.5]];portConstraint=eastwest;whiteSpace=wrap;html=1;" vertex="1" parent="LIH2WnuuIP5qrIeugnzf-75">
          <mxGeometry x="140" y="84" width="69" height="26" as="geometry" />
        </mxCell>
        <mxCell id="LIH2WnuuIP5qrIeugnzf-84" value="" style="endArrow=none;html=1;rounded=0;" edge="1" parent="1">
          <mxGeometry width="50" height="50" relative="1" as="geometry">
            <mxPoint x="307" y="200" as="sourcePoint" />
            <mxPoint x="307" y="132" as="targetPoint" />
          </mxGeometry>
        </mxCell>
        <mxCell id="LIH2WnuuIP5qrIeugnzf-86" value="embeded" style="endArrow=open;endSize=12;dashed=1;html=1;rounded=0;" edge="1" parent="1">
          <mxGeometry x="-0.0197" y="-30" width="160" relative="1" as="geometry">
            <mxPoint x="358" y="35" as="sourcePoint" />
            <mxPoint x="320" y="90" as="targetPoint" />
            <Array as="points">
              <mxPoint x="320" y="35" />
            </Array>
            <mxPoint as="offset" />
          </mxGeometry>
        </mxCell>
        <mxCell id="LIH2WnuuIP5qrIeugnzf-91" value="1" style="text;strokeColor=none;fillColor=none;align=left;verticalAlign=top;spacingLeft=4;spacingRight=4;overflow=hidden;rotatable=0;points=[[0,0.5],[1,0.5]];portConstraint=eastwest;whiteSpace=wrap;html=1;" vertex="1" parent="1">
          <mxGeometry x="336" y="13" width="20" height="26" as="geometry" />
        </mxCell>
        <mxCell id="LIH2WnuuIP5qrIeugnzf-92" value="1" style="text;strokeColor=none;fillColor=none;align=left;verticalAlign=top;spacingLeft=4;spacingRight=4;overflow=hidden;rotatable=0;points=[[0,0.5],[1,0.5]];portConstraint=eastwest;whiteSpace=wrap;html=1;" vertex="1" parent="1">
          <mxGeometry x="330" y="60" width="20" height="26" as="geometry" />
        </mxCell>
        <mxCell id="LIH2WnuuIP5qrIeugnzf-93" value="Time_log" style="swimlane;fillColor=light-dark(#FFCCCC,var(--ge-dark-color, #121212));startSize=40;" vertex="1" parent="1">
          <mxGeometry x="560" y="86" width="209" height="110" as="geometry" />
        </mxCell>
        <mxCell id="LIH2WnuuIP5qrIeugnzf-94" value="Actual_Time" style="text;strokeColor=none;fillColor=none;align=left;verticalAlign=top;spacingLeft=4;spacingRight=4;overflow=hidden;rotatable=0;points=[[0,0.5],[1,0.5]];portConstraint=eastwest;whiteSpace=wrap;html=1;" vertex="1" parent="LIH2WnuuIP5qrIeugnzf-93">
          <mxGeometry x="1" y="44" width="109" height="26" as="geometry" />
        </mxCell>
        <mxCell id="LIH2WnuuIP5qrIeugnzf-95" value="Log_date" style="text;strokeColor=none;fillColor=none;align=left;verticalAlign=top;spacingLeft=4;spacingRight=4;overflow=hidden;rotatable=0;points=[[0,0.5],[1,0.5]];portConstraint=eastwest;whiteSpace=wrap;html=1;" vertex="1" parent="LIH2WnuuIP5qrIeugnzf-93">
          <mxGeometry x="1" y="84" width="139" height="26" as="geometry" />
        </mxCell>
        <mxCell id="LIH2WnuuIP5qrIeugnzf-96" value="Date" style="text;strokeColor=none;fillColor=none;align=left;verticalAlign=top;spacingLeft=4;spacingRight=4;overflow=hidden;rotatable=0;points=[[0,0.5],[1,0.5]];portConstraint=eastwest;whiteSpace=wrap;html=1;" vertex="1" parent="LIH2WnuuIP5qrIeugnzf-93">
          <mxGeometry x="140" y="84" width="69" height="26" as="geometry" />
        </mxCell>
        <mxCell id="Rqi-fr4D4mHZzR1DRXAW-29" value="Float" style="text;strokeColor=none;fillColor=none;align=left;verticalAlign=top;spacingLeft=4;spacingRight=4;overflow=hidden;rotatable=0;points=[[0,0.5],[1,0.5]];portConstraint=eastwest;whiteSpace=wrap;html=1;" vertex="1" parent="LIH2WnuuIP5qrIeugnzf-93">
          <mxGeometry x="138" y="43" width="40" height="26" as="geometry" />
        </mxCell>
        <mxCell id="LIH2WnuuIP5qrIeugnzf-98" value="" style="endArrow=none;html=1;rounded=0;" edge="1" parent="1">
          <mxGeometry width="50" height="50" relative="1" as="geometry">
            <mxPoint x="697" y="196" as="sourcePoint" />
            <mxPoint x="697" y="128" as="targetPoint" />
          </mxGeometry>
        </mxCell>
        <mxCell id="LIH2WnuuIP5qrIeugnzf-99" value="embeded" style="endArrow=open;endSize=12;dashed=1;html=1;rounded=0;" edge="1" parent="1">
          <mxGeometry x="0.3699" y="-30" width="160" relative="1" as="geometry">
            <mxPoint x="560" y="10" as="sourcePoint" />
            <mxPoint x="630" y="86" as="targetPoint" />
            <Array as="points">
              <mxPoint x="600" y="10" />
              <mxPoint x="630" y="10" />
            </Array>
            <mxPoint as="offset" />
          </mxGeometry>
        </mxCell>
        <mxCell id="LIH2WnuuIP5qrIeugnzf-100" value="1" style="text;strokeColor=none;fillColor=none;align=left;verticalAlign=top;spacingLeft=4;spacingRight=4;overflow=hidden;rotatable=0;points=[[0,0.5],[1,0.5]];portConstraint=eastwest;whiteSpace=wrap;html=1;" vertex="1" parent="1">
          <mxGeometry x="600" y="60" width="20" height="26" as="geometry" />
        </mxCell>
        <mxCell id="LIH2WnuuIP5qrIeugnzf-101" value="1" style="text;strokeColor=none;fillColor=none;align=left;verticalAlign=top;spacingLeft=4;spacingRight=4;overflow=hidden;rotatable=0;points=[[0,0.5],[1,0.5]];portConstraint=eastwest;whiteSpace=wrap;html=1;" vertex="1" parent="1">
          <mxGeometry x="560" y="-13" width="20" height="26" as="geometry" />
        </mxCell>
        <mxCell id="LIH2WnuuIP5qrIeugnzf-102" value="Project" style="swimlane;fillColor=light-dark(#FF8000,var(--ge-dark-color, #121212));startSize=40;" vertex="1" parent="1">
          <mxGeometry x="-114" y="-680" width="201" height="300" as="geometry" />
        </mxCell>
        <mxCell id="LIH2WnuuIP5qrIeugnzf-103" value="Project_ID" style="text;strokeColor=none;fillColor=none;align=left;verticalAlign=top;spacingLeft=4;spacingRight=4;overflow=hidden;rotatable=0;points=[[0,0.5],[1,0.5]];portConstraint=eastwest;whiteSpace=wrap;html=1;" vertex="1" parent="LIH2WnuuIP5qrIeugnzf-102">
          <mxGeometry y="49" width="99" height="26" as="geometry" />
        </mxCell>
        <mxCell id="LIH2WnuuIP5qrIeugnzf-104" value="Project_Name" style="text;strokeColor=none;fillColor=none;align=left;verticalAlign=top;spacingLeft=4;spacingRight=4;overflow=hidden;rotatable=0;points=[[0,0.5],[1,0.5]];portConstraint=eastwest;whiteSpace=wrap;html=1;" vertex="1" parent="LIH2WnuuIP5qrIeugnzf-102">
          <mxGeometry y="81" width="109" height="26" as="geometry" />
        </mxCell>
        <mxCell id="LIH2WnuuIP5qrIeugnzf-136" value="Object" style="text;strokeColor=none;fillColor=#FFB366;align=left;verticalAlign=top;spacingLeft=4;spacingRight=4;overflow=hidden;rotatable=0;points=[[0,0.5],[1,0.5]];portConstraint=eastwest;whiteSpace=wrap;html=1;" vertex="1" parent="LIH2WnuuIP5qrIeugnzf-102">
          <mxGeometry x="121.5" y="269" width="78" height="30" as="geometry" />
        </mxCell>
        <mxCell id="LIH2WnuuIP5qrIeugnzf-135" value="Project_Summary" style="text;strokeColor=none;fillColor=#FFB366;align=left;verticalAlign=top;spacingLeft=4;spacingRight=4;overflow=hidden;rotatable=0;points=[[0,0.5],[1,0.5]];portConstraint=eastwest;whiteSpace=wrap;html=1;" vertex="1" parent="LIH2WnuuIP5qrIeugnzf-102">
          <mxGeometry x="0.5" y="269" width="119.5" height="30" as="geometry" />
        </mxCell>
        <mxCell id="LIH2WnuuIP5qrIeugnzf-44" value="Task_ID" style="text;strokeColor=none;fillColor=#FF3333;align=left;verticalAlign=top;spacingLeft=4;spacingRight=4;overflow=hidden;rotatable=0;points=[[0,0.5],[1,0.5]];portConstraint=eastwest;whiteSpace=wrap;html=1;" vertex="1" parent="LIH2WnuuIP5qrIeugnzf-102">
          <mxGeometry x="2" y="228" width="118" height="40" as="geometry" />
        </mxCell>
        <mxCell id="LIH2WnuuIP5qrIeugnzf-185" value="Array" style="text;strokeColor=none;fillColor=#FF3333;align=left;verticalAlign=top;spacingLeft=4;spacingRight=4;overflow=hidden;rotatable=0;points=[[0,0.5],[1,0.5]];portConstraint=eastwest;whiteSpace=wrap;html=1;" vertex="1" parent="LIH2WnuuIP5qrIeugnzf-102">
          <mxGeometry x="120" y="228" width="80" height="40" as="geometry" />
        </mxCell>
        <mxCell id="LIH2WnuuIP5qrIeugnzf-106" value="Status" style="text;strokeColor=none;fillColor=none;align=left;verticalAlign=top;spacingLeft=4;spacingRight=4;overflow=hidden;rotatable=0;points=[[0,0.5],[1,0.5]];portConstraint=eastwest;whiteSpace=wrap;html=1;" vertex="1" parent="LIH2WnuuIP5qrIeugnzf-102">
          <mxGeometry x="3" y="108" width="80" height="26" as="geometry" />
        </mxCell>
        <mxCell id="LIH2WnuuIP5qrIeugnzf-235" value="Int" style="text;strokeColor=none;fillColor=none;align=left;verticalAlign=top;spacingLeft=4;spacingRight=4;overflow=hidden;rotatable=0;points=[[0,0.5],[1,0.5]];portConstraint=eastwest;whiteSpace=wrap;html=1;" vertex="1" parent="LIH2WnuuIP5qrIeugnzf-102">
          <mxGeometry x="119.5" y="49" width="81" height="26" as="geometry" />
        </mxCell>
        <mxCell id="BjBpJX-8BuaDXUs7vQdQ-9" value="create_date" style="text;strokeColor=none;fillColor=none;align=left;verticalAlign=top;spacingLeft=4;spacingRight=4;overflow=hidden;rotatable=0;points=[[0,0.5],[1,0.5]];portConstraint=eastwest;whiteSpace=wrap;html=1;" vertex="1" parent="LIH2WnuuIP5qrIeugnzf-102">
          <mxGeometry x="1" y="168" width="120" height="26" as="geometry" />
        </mxCell>
        <mxCell id="BjBpJX-8BuaDXUs7vQdQ-10" value="Date" style="text;strokeColor=none;fillColor=none;align=left;verticalAlign=top;spacingLeft=4;spacingRight=4;overflow=hidden;rotatable=0;points=[[0,0.5],[1,0.5]];portConstraint=eastwest;whiteSpace=wrap;html=1;" vertex="1" parent="LIH2WnuuIP5qrIeugnzf-102">
          <mxGeometry x="121" y="168" width="69" height="26" as="geometry" />
        </mxCell>
        <mxCell id="BjBpJX-8BuaDXUs7vQdQ-11" value="update_date" style="text;strokeColor=none;fillColor=none;align=left;verticalAlign=top;spacingLeft=4;spacingRight=4;overflow=hidden;rotatable=0;points=[[0,0.5],[1,0.5]];portConstraint=eastwest;whiteSpace=wrap;html=1;" vertex="1" parent="LIH2WnuuIP5qrIeugnzf-102">
          <mxGeometry y="192" width="121" height="26" as="geometry" />
        </mxCell>
        <mxCell id="BjBpJX-8BuaDXUs7vQdQ-12" value="Date" style="text;strokeColor=none;fillColor=none;align=left;verticalAlign=top;spacingLeft=4;spacingRight=4;overflow=hidden;rotatable=0;points=[[0,0.5],[1,0.5]];portConstraint=eastwest;whiteSpace=wrap;html=1;" vertex="1" parent="LIH2WnuuIP5qrIeugnzf-102">
          <mxGeometry x="120" y="194" width="66.35" height="25" as="geometry" />
        </mxCell>
        <mxCell id="Rqi-fr4D4mHZzR1DRXAW-5" value="String" style="text;strokeColor=none;fillColor=none;align=left;verticalAlign=top;spacingLeft=4;spacingRight=4;overflow=hidden;rotatable=0;points=[[0,0.5],[1,0.5]];portConstraint=eastwest;whiteSpace=wrap;html=1;" vertex="1" parent="LIH2WnuuIP5qrIeugnzf-102">
          <mxGeometry x="120" y="81" width="81" height="26" as="geometry" />
        </mxCell>
        <mxCell id="Rqi-fr4D4mHZzR1DRXAW-6" value="String" style="text;strokeColor=none;fillColor=none;align=left;verticalAlign=top;spacingLeft=4;spacingRight=4;overflow=hidden;rotatable=0;points=[[0,0.5],[1,0.5]];portConstraint=eastwest;whiteSpace=wrap;html=1;" vertex="1" parent="LIH2WnuuIP5qrIeugnzf-102">
          <mxGeometry x="119.5" y="109" width="76.5" height="26" as="geometry" />
        </mxCell>
        <mxCell id="LIH2WnuuIP5qrIeugnzf-229" value="Int" style="text;strokeColor=none;fillColor=#6666FF;align=left;verticalAlign=top;spacingLeft=4;spacingRight=4;overflow=hidden;rotatable=0;points=[[0,0.5],[1,0.5]];portConstraint=eastwest;whiteSpace=wrap;html=1;" vertex="1" parent="LIH2WnuuIP5qrIeugnzf-102">
          <mxGeometry x="124" y="134" width="76" height="30" as="geometry" />
        </mxCell>
        <mxCell id="LIH2WnuuIP5qrIeugnzf-180" value="PM_ID" style="text;strokeColor=none;fillColor=#6666FF;align=left;verticalAlign=top;spacingLeft=4;spacingRight=4;overflow=hidden;rotatable=0;points=[[0,0.5],[1,0.5]];portConstraint=eastwest;whiteSpace=wrap;html=1;" vertex="1" parent="LIH2WnuuIP5qrIeugnzf-102">
          <mxGeometry y="134" width="130" height="29" as="geometry" />
        </mxCell>
        <mxCell id="LIH2WnuuIP5qrIeugnzf-110" value="Employee" style="swimlane;fillColor=light-dark(#6666FF,var(--ge-dark-color, #121212));startSize=40;" vertex="1" parent="1">
          <mxGeometry x="-511" y="-680" width="200" height="390" as="geometry" />
        </mxCell>
        <mxCell id="LIH2WnuuIP5qrIeugnzf-111" value="Employee_ID" style="text;strokeColor=none;fillColor=none;align=left;verticalAlign=top;spacingLeft=4;spacingRight=4;overflow=hidden;rotatable=0;points=[[0,0.5],[1,0.5]];portConstraint=eastwest;whiteSpace=wrap;html=1;" vertex="1" parent="LIH2WnuuIP5qrIeugnzf-110">
          <mxGeometry x="1" y="53" width="109" height="26" as="geometry" />
        </mxCell>
        <mxCell id="LIH2WnuuIP5qrIeugnzf-112" value="FirstName" style="text;strokeColor=none;fillColor=none;align=left;verticalAlign=top;spacingLeft=4;spacingRight=4;overflow=hidden;rotatable=0;points=[[0,0.5],[1,0.5]];portConstraint=eastwest;whiteSpace=wrap;html=1;" vertex="1" parent="LIH2WnuuIP5qrIeugnzf-110">
          <mxGeometry x="1" y="84" width="80" height="26" as="geometry" />
        </mxCell>
        <mxCell id="LIH2WnuuIP5qrIeugnzf-113" value="Supervisor_ID" style="text;strokeColor=none;fillColor=none;align=left;verticalAlign=top;spacingLeft=4;spacingRight=4;overflow=hidden;rotatable=0;points=[[0,0.5],[1,0.5]];portConstraint=eastwest;whiteSpace=wrap;html=1;" vertex="1" parent="LIH2WnuuIP5qrIeugnzf-110">
          <mxGeometry y="150" width="100" height="26" as="geometry" />
        </mxCell>
        <mxCell id="LIH2WnuuIP5qrIeugnzf-114" value="Email" style="text;strokeColor=none;fillColor=none;align=left;verticalAlign=top;spacingLeft=4;spacingRight=4;overflow=hidden;rotatable=0;points=[[0,0.5],[1,0.5]];portConstraint=eastwest;whiteSpace=wrap;html=1;" vertex="1" parent="LIH2WnuuIP5qrIeugnzf-110">
          <mxGeometry x="1" y="183" width="80" height="26" as="geometry" />
        </mxCell>
        <mxCell id="LIH2WnuuIP5qrIeugnzf-115" value="Phone" style="text;strokeColor=none;fillColor=none;align=left;verticalAlign=top;spacingLeft=4;spacingRight=4;overflow=hidden;rotatable=0;points=[[0,0.5],[1,0.5]];portConstraint=eastwest;whiteSpace=wrap;html=1;" vertex="1" parent="LIH2WnuuIP5qrIeugnzf-110">
          <mxGeometry x="1" y="216" width="120" height="26" as="geometry" />
        </mxCell>
        <mxCell id="LIH2WnuuIP5qrIeugnzf-117" value="LastName" style="text;strokeColor=none;fillColor=none;align=left;verticalAlign=top;spacingLeft=4;spacingRight=4;overflow=hidden;rotatable=0;points=[[0,0.5],[1,0.5]];portConstraint=eastwest;whiteSpace=wrap;html=1;" vertex="1" parent="LIH2WnuuIP5qrIeugnzf-110">
          <mxGeometry x="1" y="118" width="80" height="26" as="geometry" />
        </mxCell>
        <mxCell id="LIH2WnuuIP5qrIeugnzf-146" value="Join_date" style="text;strokeColor=none;fillColor=none;align=left;verticalAlign=top;spacingLeft=4;spacingRight=4;overflow=hidden;rotatable=0;points=[[0,0.5],[1,0.5]];portConstraint=eastwest;whiteSpace=wrap;html=1;" vertex="1" parent="LIH2WnuuIP5qrIeugnzf-110">
          <mxGeometry x="1" y="245" width="120" height="26" as="geometry" />
        </mxCell>
        <mxCell id="LIH2WnuuIP5qrIeugnzf-147" value="Role" style="text;strokeColor=none;fillColor=#9999FF;align=left;verticalAlign=top;spacingLeft=4;spacingRight=4;overflow=hidden;rotatable=0;points=[[0,0.5],[1,0.5]];portConstraint=eastwest;whiteSpace=wrap;html=1;" vertex="1" parent="LIH2WnuuIP5qrIeugnzf-110">
          <mxGeometry y="359" width="120" height="30" as="geometry" />
        </mxCell>
        <mxCell id="LIH2WnuuIP5qrIeugnzf-148" value="" style="endArrow=none;html=1;rounded=0;" edge="1" parent="LIH2WnuuIP5qrIeugnzf-110">
          <mxGeometry width="50" height="50" relative="1" as="geometry">
            <mxPoint x="120" y="390" as="sourcePoint" />
            <mxPoint x="119.82" y="41.5" as="targetPoint" />
          </mxGeometry>
        </mxCell>
        <mxCell id="LIH2WnuuIP5qrIeugnzf-150" value="" style="endArrow=none;html=1;rounded=0;" edge="1" parent="LIH2WnuuIP5qrIeugnzf-110">
          <mxGeometry width="50" height="50" relative="1" as="geometry">
            <mxPoint x="1" y="358.82" as="sourcePoint" />
            <mxPoint x="201" y="358.82" as="targetPoint" />
          </mxGeometry>
        </mxCell>
        <mxCell id="LIH2WnuuIP5qrIeugnzf-151" value="Object" style="text;strokeColor=none;fillColor=#9999FF;align=left;verticalAlign=top;spacingLeft=4;spacingRight=4;overflow=hidden;rotatable=0;points=[[0,0.5],[1,0.5]];portConstraint=eastwest;whiteSpace=wrap;html=1;" vertex="1" parent="LIH2WnuuIP5qrIeugnzf-110">
          <mxGeometry x="120" y="359" width="80" height="30" as="geometry" />
        </mxCell>
        <mxCell id="LIH2WnuuIP5qrIeugnzf-205" value="" style="endArrow=none;html=1;rounded=0;" edge="1" parent="LIH2WnuuIP5qrIeugnzf-110">
          <mxGeometry width="50" height="50" relative="1" as="geometry">
            <mxPoint x="1" y="329.99999999999994" as="sourcePoint" />
            <mxPoint x="201" y="329.99999999999994" as="targetPoint" />
          </mxGeometry>
        </mxCell>
        <mxCell id="Rqi-fr4D4mHZzR1DRXAW-15" value="String" style="text;strokeColor=none;fillColor=none;align=left;verticalAlign=top;spacingLeft=4;spacingRight=4;overflow=hidden;rotatable=0;points=[[0,0.5],[1,0.5]];portConstraint=eastwest;whiteSpace=wrap;html=1;" vertex="1" parent="LIH2WnuuIP5qrIeugnzf-110">
          <mxGeometry x="121" y="84" width="54" height="26" as="geometry" />
        </mxCell>
        <mxCell id="Rqi-fr4D4mHZzR1DRXAW-16" value="String" style="text;strokeColor=none;fillColor=none;align=left;verticalAlign=top;spacingLeft=4;spacingRight=4;overflow=hidden;rotatable=0;points=[[0,0.5],[1,0.5]];portConstraint=eastwest;whiteSpace=wrap;html=1;" vertex="1" parent="LIH2WnuuIP5qrIeugnzf-110">
          <mxGeometry x="121" y="118" width="54" height="26" as="geometry" />
        </mxCell>
        <mxCell id="Rqi-fr4D4mHZzR1DRXAW-17" value="String" style="text;strokeColor=none;fillColor=none;align=left;verticalAlign=top;spacingLeft=4;spacingRight=4;overflow=hidden;rotatable=0;points=[[0,0.5],[1,0.5]];portConstraint=eastwest;whiteSpace=wrap;html=1;" vertex="1" parent="LIH2WnuuIP5qrIeugnzf-110">
          <mxGeometry x="121" y="183" width="54" height="26" as="geometry" />
        </mxCell>
        <mxCell id="Rqi-fr4D4mHZzR1DRXAW-18" value="Date" style="text;strokeColor=none;fillColor=none;align=left;verticalAlign=top;spacingLeft=4;spacingRight=4;overflow=hidden;rotatable=0;points=[[0,0.5],[1,0.5]];portConstraint=eastwest;whiteSpace=wrap;html=1;" vertex="1" parent="LIH2WnuuIP5qrIeugnzf-110">
          <mxGeometry x="120" y="245" width="69" height="26" as="geometry" />
        </mxCell>
        <mxCell id="Rqi-fr4D4mHZzR1DRXAW-19" value="Int" style="text;strokeColor=none;fillColor=none;align=left;verticalAlign=top;spacingLeft=4;spacingRight=4;overflow=hidden;rotatable=0;points=[[0,0.5],[1,0.5]];portConstraint=eastwest;whiteSpace=wrap;html=1;" vertex="1" parent="LIH2WnuuIP5qrIeugnzf-110">
          <mxGeometry x="121" y="53" width="40" height="26" as="geometry" />
        </mxCell>
        <mxCell id="Rqi-fr4D4mHZzR1DRXAW-20" value="Int" style="text;strokeColor=none;fillColor=none;align=left;verticalAlign=top;spacingLeft=4;spacingRight=4;overflow=hidden;rotatable=0;points=[[0,0.5],[1,0.5]];portConstraint=eastwest;whiteSpace=wrap;html=1;" vertex="1" parent="LIH2WnuuIP5qrIeugnzf-110">
          <mxGeometry x="121" y="150" width="40" height="26" as="geometry" />
        </mxCell>
        <mxCell id="Rqi-fr4D4mHZzR1DRXAW-32" value="String" style="text;strokeColor=none;fillColor=none;align=left;verticalAlign=top;spacingLeft=4;spacingRight=4;overflow=hidden;rotatable=0;points=[[0,0.5],[1,0.5]];portConstraint=eastwest;whiteSpace=wrap;html=1;" vertex="1" parent="LIH2WnuuIP5qrIeugnzf-110">
          <mxGeometry x="121" y="216" width="54" height="26" as="geometry" />
        </mxCell>
        <mxCell id="BjBpJX-8BuaDXUs7vQdQ-1" value="create_at" style="text;strokeColor=none;fillColor=none;align=left;verticalAlign=top;spacingLeft=4;spacingRight=4;overflow=hidden;rotatable=0;points=[[0,0.5],[1,0.5]];portConstraint=eastwest;whiteSpace=wrap;html=1;" vertex="1" parent="LIH2WnuuIP5qrIeugnzf-110">
          <mxGeometry y="275" width="120" height="26" as="geometry" />
        </mxCell>
        <mxCell id="BjBpJX-8BuaDXUs7vQdQ-2" value="Date" style="text;strokeColor=none;fillColor=none;align=left;verticalAlign=top;spacingLeft=4;spacingRight=4;overflow=hidden;rotatable=0;points=[[0,0.5],[1,0.5]];portConstraint=eastwest;whiteSpace=wrap;html=1;" vertex="1" parent="LIH2WnuuIP5qrIeugnzf-110">
          <mxGeometry x="121" y="275" width="69" height="26" as="geometry" />
        </mxCell>
        <mxCell id="LIH2WnuuIP5qrIeugnzf-119" value="Project_Summary" style="swimlane;fillColor=light-dark(#FFB366,var(--ge-dark-color, #121212));startSize=40;" vertex="1" parent="1">
          <mxGeometry x="-114" y="-290" width="200" height="200" as="geometry" />
        </mxCell>
        <mxCell id="LIH2WnuuIP5qrIeugnzf-122" value="Budget" style="text;strokeColor=none;fillColor=none;align=left;verticalAlign=top;spacingLeft=4;spacingRight=4;overflow=hidden;rotatable=0;points=[[0,0.5],[1,0.5]];portConstraint=eastwest;whiteSpace=wrap;html=1;" vertex="1" parent="LIH2WnuuIP5qrIeugnzf-119">
          <mxGeometry y="87" width="80" height="26" as="geometry" />
        </mxCell>
        <mxCell id="LIH2WnuuIP5qrIeugnzf-123" value="Start_date" style="text;strokeColor=none;fillColor=none;align=left;verticalAlign=top;spacingLeft=4;spacingRight=4;overflow=hidden;rotatable=0;points=[[0,0.5],[1,0.5]];portConstraint=eastwest;whiteSpace=wrap;html=1;" vertex="1" parent="LIH2WnuuIP5qrIeugnzf-119">
          <mxGeometry y="127" width="80" height="26" as="geometry" />
        </mxCell>
        <mxCell id="LIH2WnuuIP5qrIeugnzf-124" value="Description" style="text;strokeColor=none;fillColor=none;align=left;verticalAlign=top;spacingLeft=4;spacingRight=4;overflow=hidden;rotatable=0;points=[[0,0.5],[1,0.5]];portConstraint=eastwest;whiteSpace=wrap;html=1;" vertex="1" parent="LIH2WnuuIP5qrIeugnzf-119">
          <mxGeometry y="47" width="80" height="26" as="geometry" />
        </mxCell>
        <mxCell id="LIH2WnuuIP5qrIeugnzf-125" value="" style="endArrow=none;html=1;rounded=0;" edge="1" parent="LIH2WnuuIP5qrIeugnzf-119">
          <mxGeometry width="50" height="50" relative="1" as="geometry">
            <mxPoint x="121" y="200" as="sourcePoint" />
            <mxPoint x="121" y="42" as="targetPoint" />
          </mxGeometry>
        </mxCell>
        <mxCell id="LIH2WnuuIP5qrIeugnzf-126" value="End_date" style="text;strokeColor=none;fillColor=none;align=left;verticalAlign=top;spacingLeft=4;spacingRight=4;overflow=hidden;rotatable=0;points=[[0,0.5],[1,0.5]];portConstraint=eastwest;whiteSpace=wrap;html=1;" vertex="1" parent="LIH2WnuuIP5qrIeugnzf-119">
          <mxGeometry y="167" width="80" height="26" as="geometry" />
        </mxCell>
        <mxCell id="LIH2WnuuIP5qrIeugnzf-127" value="Date" style="text;strokeColor=none;fillColor=none;align=left;verticalAlign=top;spacingLeft=4;spacingRight=4;overflow=hidden;rotatable=0;points=[[0,0.5],[1,0.5]];portConstraint=eastwest;whiteSpace=wrap;html=1;" vertex="1" parent="LIH2WnuuIP5qrIeugnzf-119">
          <mxGeometry x="123" y="127" width="69" height="26" as="geometry" />
        </mxCell>
        <mxCell id="LIH2WnuuIP5qrIeugnzf-128" value="Date" style="text;strokeColor=none;fillColor=none;align=left;verticalAlign=top;spacingLeft=4;spacingRight=4;overflow=hidden;rotatable=0;points=[[0,0.5],[1,0.5]];portConstraint=eastwest;whiteSpace=wrap;html=1;" vertex="1" parent="LIH2WnuuIP5qrIeugnzf-119">
          <mxGeometry x="123" y="167" width="69" height="26" as="geometry" />
        </mxCell>
        <mxCell id="LIH2WnuuIP5qrIeugnzf-138" value="Int" style="text;strokeColor=none;fillColor=none;align=left;verticalAlign=top;spacingLeft=4;spacingRight=4;overflow=hidden;rotatable=0;points=[[0,0.5],[1,0.5]];portConstraint=eastwest;whiteSpace=wrap;html=1;" vertex="1" parent="LIH2WnuuIP5qrIeugnzf-119">
          <mxGeometry x="122" y="92" width="69" height="26" as="geometry" />
        </mxCell>
        <mxCell id="LIH2WnuuIP5qrIeugnzf-139" value="String" style="text;strokeColor=none;fillColor=none;align=left;verticalAlign=top;spacingLeft=4;spacingRight=4;overflow=hidden;rotatable=0;points=[[0,0.5],[1,0.5]];portConstraint=eastwest;whiteSpace=wrap;html=1;" vertex="1" parent="LIH2WnuuIP5qrIeugnzf-119">
          <mxGeometry x="122" y="50" width="69" height="26" as="geometry" />
        </mxCell>
        <mxCell id="LIH2WnuuIP5qrIeugnzf-129" value="embeded" style="endArrow=open;endSize=12;dashed=1;html=1;rounded=0;entryX=1.026;entryY=0.098;entryDx=0;entryDy=0;entryPerimeter=0;" edge="1" parent="1" target="LIH2WnuuIP5qrIeugnzf-119">
          <mxGeometry x="-0.0234" y="-40" width="160" relative="1" as="geometry">
            <mxPoint x="91" y="-400" as="sourcePoint" />
            <mxPoint x="186" y="-430" as="targetPoint" />
            <Array as="points">
              <mxPoint x="136" y="-400" />
              <mxPoint x="136" y="-270" />
            </Array>
            <mxPoint as="offset" />
          </mxGeometry>
        </mxCell>
        <mxCell id="LIH2WnuuIP5qrIeugnzf-133" value="1" style="text;strokeColor=none;fillColor=none;align=left;verticalAlign=top;spacingLeft=4;spacingRight=4;overflow=hidden;rotatable=0;points=[[0,0.5],[1,0.5]];portConstraint=eastwest;whiteSpace=wrap;html=1;" vertex="1" parent="1">
          <mxGeometry x="106" y="-300" width="20" height="26" as="geometry" />
        </mxCell>
        <mxCell id="LIH2WnuuIP5qrIeugnzf-137" value="1" style="text;strokeColor=none;fillColor=none;align=left;verticalAlign=top;spacingLeft=4;spacingRight=4;overflow=hidden;rotatable=0;points=[[0,0.5],[1,0.5]];portConstraint=eastwest;whiteSpace=wrap;html=1;" vertex="1" parent="1">
          <mxGeometry x="96" y="-394" width="20" height="26" as="geometry" />
        </mxCell>
        <mxCell id="LIH2WnuuIP5qrIeugnzf-140" value="Role" style="swimlane;fillColor=light-dark(#9999FF,var(--ge-dark-color, #121212));startSize=40;" vertex="1" parent="1">
          <mxGeometry x="-520" y="-211" width="209" height="121" as="geometry" />
        </mxCell>
        <mxCell id="LIH2WnuuIP5qrIeugnzf-141" value="Role_Name" style="text;strokeColor=none;fillColor=none;align=left;verticalAlign=top;spacingLeft=4;spacingRight=4;overflow=hidden;rotatable=0;points=[[0,0.5],[1,0.5]];portConstraint=eastwest;whiteSpace=wrap;html=1;" vertex="1" parent="LIH2WnuuIP5qrIeugnzf-140">
          <mxGeometry x="1" y="44" width="109" height="26" as="geometry" />
        </mxCell>
        <mxCell id="LIH2WnuuIP5qrIeugnzf-142" value="Description" style="text;strokeColor=none;fillColor=none;align=left;verticalAlign=top;spacingLeft=4;spacingRight=4;overflow=hidden;rotatable=0;points=[[0,0.5],[1,0.5]];portConstraint=eastwest;whiteSpace=wrap;html=1;" vertex="1" parent="LIH2WnuuIP5qrIeugnzf-140">
          <mxGeometry x="1" y="84" width="139" height="26" as="geometry" />
        </mxCell>
        <mxCell id="LIH2WnuuIP5qrIeugnzf-144" value="String" style="text;strokeColor=none;fillColor=none;align=left;verticalAlign=top;spacingLeft=4;spacingRight=4;overflow=hidden;rotatable=0;points=[[0,0.5],[1,0.5]];portConstraint=eastwest;whiteSpace=wrap;html=1;" vertex="1" parent="LIH2WnuuIP5qrIeugnzf-140">
          <mxGeometry x="130" y="84" width="69" height="26" as="geometry" />
        </mxCell>
        <mxCell id="LIH2WnuuIP5qrIeugnzf-169" value="String" style="text;strokeColor=none;fillColor=none;align=left;verticalAlign=top;spacingLeft=4;spacingRight=4;overflow=hidden;rotatable=0;points=[[0,0.5],[1,0.5]];portConstraint=eastwest;whiteSpace=wrap;html=1;" vertex="1" parent="LIH2WnuuIP5qrIeugnzf-140">
          <mxGeometry x="129" y="46.5" width="69" height="26" as="geometry" />
        </mxCell>
        <mxCell id="LIH2WnuuIP5qrIeugnzf-149" value="" style="endArrow=none;html=1;rounded=0;" edge="1" parent="1">
          <mxGeometry width="50" height="50" relative="1" as="geometry">
            <mxPoint x="-391" y="-90" as="sourcePoint" />
            <mxPoint x="-391" y="-170" as="targetPoint" />
          </mxGeometry>
        </mxCell>
        <mxCell id="LIH2WnuuIP5qrIeugnzf-152" value="embeded" style="endArrow=open;endSize=12;dashed=1;html=1;rounded=0;entryX=1;entryY=0.25;entryDx=0;entryDy=0;exitX=1;exitY=0.5;exitDx=0;exitDy=0;" edge="1" parent="1" source="LIH2WnuuIP5qrIeugnzf-151" target="LIH2WnuuIP5qrIeugnzf-140">
          <mxGeometry x="-0.0197" y="-30" width="160" relative="1" as="geometry">
            <mxPoint x="-250" y="-340" as="sourcePoint" />
            <mxPoint x="-121" y="90" as="targetPoint" />
            <Array as="points">
              <mxPoint x="-251" y="-306" />
              <mxPoint x="-251" y="-181" />
            </Array>
            <mxPoint as="offset" />
          </mxGeometry>
        </mxCell>
        <mxCell id="LIH2WnuuIP5qrIeugnzf-153" value="Client" style="swimlane;fillColor=light-dark(#CC6600,var(--ge-dark-color, #121212));startSize=40;" vertex="1" parent="1">
          <mxGeometry x="356" y="-1040" width="200" height="340" as="geometry" />
        </mxCell>
        <mxCell id="LIH2WnuuIP5qrIeugnzf-154" value="Client_ID" style="text;strokeColor=none;fillColor=none;align=left;verticalAlign=top;spacingLeft=4;spacingRight=4;overflow=hidden;rotatable=0;points=[[0,0.5],[1,0.5]];portConstraint=eastwest;whiteSpace=wrap;html=1;" vertex="1" parent="LIH2WnuuIP5qrIeugnzf-153">
          <mxGeometry x="1" y="53" width="99" height="26" as="geometry" />
        </mxCell>
        <mxCell id="LIH2WnuuIP5qrIeugnzf-155" value="Client_Name" style="text;strokeColor=none;fillColor=none;align=left;verticalAlign=top;spacingLeft=4;spacingRight=4;overflow=hidden;rotatable=0;points=[[0,0.5],[1,0.5]];portConstraint=eastwest;whiteSpace=wrap;html=1;" vertex="1" parent="LIH2WnuuIP5qrIeugnzf-153">
          <mxGeometry x="1" y="93" width="109" height="26" as="geometry" />
        </mxCell>
        <mxCell id="LIH2WnuuIP5qrIeugnzf-156" value="Address" style="text;strokeColor=none;fillColor=none;align=left;verticalAlign=top;spacingLeft=4;spacingRight=4;overflow=hidden;rotatable=0;points=[[0,0.5],[1,0.5]];portConstraint=eastwest;whiteSpace=wrap;html=1;" vertex="1" parent="LIH2WnuuIP5qrIeugnzf-153">
          <mxGeometry y="174" width="80" height="26" as="geometry" />
        </mxCell>
        <mxCell id="LIH2WnuuIP5qrIeugnzf-157" value="Phone" style="text;strokeColor=none;fillColor=none;align=left;verticalAlign=top;spacingLeft=4;spacingRight=4;overflow=hidden;rotatable=0;points=[[0,0.5],[1,0.5]];portConstraint=eastwest;whiteSpace=wrap;html=1;" vertex="1" parent="LIH2WnuuIP5qrIeugnzf-153">
          <mxGeometry x="1" y="214" width="80" height="26" as="geometry" />
        </mxCell>
        <mxCell id="LIH2WnuuIP5qrIeugnzf-158" value="Contact_person" style="text;strokeColor=none;fillColor=none;align=left;verticalAlign=top;spacingLeft=4;spacingRight=4;overflow=hidden;rotatable=0;points=[[0,0.5],[1,0.5]];portConstraint=eastwest;whiteSpace=wrap;html=1;" vertex="1" parent="LIH2WnuuIP5qrIeugnzf-153">
          <mxGeometry x="1" y="134" width="99" height="26" as="geometry" />
        </mxCell>
        <mxCell id="LIH2WnuuIP5qrIeugnzf-172" value="Project" style="text;strokeColor=none;fillColor=#FF8000;align=left;verticalAlign=top;spacingLeft=4;spacingRight=4;overflow=hidden;rotatable=0;points=[[0,0.5],[1,0.5]];portConstraint=eastwest;whiteSpace=wrap;html=1;" vertex="1" parent="LIH2WnuuIP5qrIeugnzf-153">
          <mxGeometry y="312" width="118" height="26" as="geometry" />
        </mxCell>
        <mxCell id="LIH2WnuuIP5qrIeugnzf-176" value="Array" style="text;strokeColor=none;fillColor=#FF8000;align=left;verticalAlign=top;spacingLeft=4;spacingRight=4;overflow=hidden;rotatable=0;points=[[0,0.5],[1,0.5]];portConstraint=eastwest;whiteSpace=wrap;html=1;" vertex="1" parent="LIH2WnuuIP5qrIeugnzf-153">
          <mxGeometry x="120.5" y="312" width="79.5" height="26" as="geometry" />
        </mxCell>
        <mxCell id="LIH2WnuuIP5qrIeugnzf-159" value="" style="endArrow=none;html=1;rounded=0;" edge="1" parent="LIH2WnuuIP5qrIeugnzf-153">
          <mxGeometry width="50" height="50" relative="1" as="geometry">
            <mxPoint x="120" y="340" as="sourcePoint" />
            <mxPoint x="119.81999999999994" y="42" as="targetPoint" />
          </mxGeometry>
        </mxCell>
        <mxCell id="Rqi-fr4D4mHZzR1DRXAW-12" value="String" style="text;strokeColor=none;fillColor=none;align=left;verticalAlign=top;spacingLeft=4;spacingRight=4;overflow=hidden;rotatable=0;points=[[0,0.5],[1,0.5]];portConstraint=eastwest;whiteSpace=wrap;html=1;" vertex="1" parent="LIH2WnuuIP5qrIeugnzf-153">
          <mxGeometry x="125.25" y="93" width="54" height="26" as="geometry" />
        </mxCell>
        <mxCell id="Rqi-fr4D4mHZzR1DRXAW-13" value="String" style="text;strokeColor=none;fillColor=none;align=left;verticalAlign=top;spacingLeft=4;spacingRight=4;overflow=hidden;rotatable=0;points=[[0,0.5],[1,0.5]];portConstraint=eastwest;whiteSpace=wrap;html=1;" vertex="1" parent="LIH2WnuuIP5qrIeugnzf-153">
          <mxGeometry x="125.25" y="134" width="54" height="26" as="geometry" />
        </mxCell>
        <mxCell id="Rqi-fr4D4mHZzR1DRXAW-14" value="String" style="text;strokeColor=none;fillColor=none;align=left;verticalAlign=top;spacingLeft=4;spacingRight=4;overflow=hidden;rotatable=0;points=[[0,0.5],[1,0.5]];portConstraint=eastwest;whiteSpace=wrap;html=1;" vertex="1" parent="LIH2WnuuIP5qrIeugnzf-153">
          <mxGeometry x="125" y="174" width="54" height="26" as="geometry" />
        </mxCell>
        <mxCell id="Rqi-fr4D4mHZzR1DRXAW-33" value="String" style="text;strokeColor=none;fillColor=none;align=left;verticalAlign=top;spacingLeft=4;spacingRight=4;overflow=hidden;rotatable=0;points=[[0,0.5],[1,0.5]];portConstraint=eastwest;whiteSpace=wrap;html=1;" vertex="1" parent="LIH2WnuuIP5qrIeugnzf-153">
          <mxGeometry x="125" y="214" width="54" height="26" as="geometry" />
        </mxCell>
        <mxCell id="BjBpJX-8BuaDXUs7vQdQ-20" value="create_at" style="text;strokeColor=none;fillColor=none;align=left;verticalAlign=top;spacingLeft=4;spacingRight=4;overflow=hidden;rotatable=0;points=[[0,0.5],[1,0.5]];portConstraint=eastwest;whiteSpace=wrap;html=1;" vertex="1" parent="LIH2WnuuIP5qrIeugnzf-153">
          <mxGeometry y="250" width="129.23" height="28" as="geometry" />
        </mxCell>
        <mxCell id="BjBpJX-8BuaDXUs7vQdQ-21" value="Date" style="text;strokeColor=none;fillColor=none;align=left;verticalAlign=top;spacingLeft=4;spacingRight=4;overflow=hidden;rotatable=0;points=[[0,0.5],[1,0.5]];portConstraint=eastwest;whiteSpace=wrap;html=1;" vertex="1" parent="LIH2WnuuIP5qrIeugnzf-153">
          <mxGeometry x="128" y="250" width="69" height="26" as="geometry" />
        </mxCell>
        <mxCell id="BjBpJX-8BuaDXUs7vQdQ-22" value="Date" style="text;strokeColor=none;fillColor=none;align=left;verticalAlign=top;spacingLeft=4;spacingRight=4;overflow=hidden;rotatable=0;points=[[0,0.5],[1,0.5]];portConstraint=eastwest;whiteSpace=wrap;html=1;" vertex="1" parent="LIH2WnuuIP5qrIeugnzf-153">
          <mxGeometry x="127" y="281" width="69" height="26" as="geometry" />
        </mxCell>
        <mxCell id="BjBpJX-8BuaDXUs7vQdQ-23" value="update_at" style="text;strokeColor=none;fillColor=none;align=left;verticalAlign=top;spacingLeft=4;spacingRight=4;overflow=hidden;rotatable=0;points=[[0,0.5],[1,0.5]];portConstraint=eastwest;whiteSpace=wrap;html=1;" vertex="1" parent="LIH2WnuuIP5qrIeugnzf-153">
          <mxGeometry x="1" y="283" width="121" height="26" as="geometry" />
        </mxCell>
        <mxCell id="LIH2WnuuIP5qrIeugnzf-166" value="" style="html=1;verticalAlign=bottom;endArrow=block;curved=0;rounded=0;entryX=1;entryY=0.1;entryDx=0;entryDy=0;entryPerimeter=0;exitX=0;exitY=0.5;exitDx=0;exitDy=0;" edge="1" parent="1" target="LIH2WnuuIP5qrIeugnzf-102">
          <mxGeometry width="80" relative="1" as="geometry">
            <mxPoint x="356" y="-719" as="sourcePoint" />
            <mxPoint x="88.80899999999974" y="-624.24" as="targetPoint" />
            <Array as="points">
              <mxPoint x="180" y="-719" />
              <mxPoint x="180" y="-650" />
            </Array>
          </mxGeometry>
        </mxCell>
        <mxCell id="LIH2WnuuIP5qrIeugnzf-167" value="1" style="text;strokeColor=none;fillColor=none;align=left;verticalAlign=top;spacingLeft=4;spacingRight=4;overflow=hidden;rotatable=0;points=[[0,0.5],[1,0.5]];portConstraint=eastwest;whiteSpace=wrap;html=1;" vertex="1" parent="1">
          <mxGeometry x="317" y="-753" width="20" height="26" as="geometry" />
        </mxCell>
        <mxCell id="LIH2WnuuIP5qrIeugnzf-168" value="M" style="text;strokeColor=none;fillColor=none;align=left;verticalAlign=top;spacingLeft=4;spacingRight=4;overflow=hidden;rotatable=0;points=[[0,0.5],[1,0.5]];portConstraint=eastwest;whiteSpace=wrap;html=1;" vertex="1" parent="1">
          <mxGeometry x="105.5" y="-680" width="20" height="26" as="geometry" />
        </mxCell>
        <mxCell id="LIH2WnuuIP5qrIeugnzf-170" value="1" style="text;strokeColor=none;fillColor=none;align=left;verticalAlign=top;spacingLeft=4;spacingRight=4;overflow=hidden;rotatable=0;points=[[0,0.5],[1,0.5]];portConstraint=eastwest;whiteSpace=wrap;html=1;" vertex="1" parent="1">
          <mxGeometry x="-311" y="-331" width="20" height="26" as="geometry" />
        </mxCell>
        <mxCell id="LIH2WnuuIP5qrIeugnzf-171" value="1" style="text;strokeColor=none;fillColor=none;align=left;verticalAlign=top;spacingLeft=4;spacingRight=4;overflow=hidden;rotatable=0;points=[[0,0.5],[1,0.5]];portConstraint=eastwest;whiteSpace=wrap;html=1;" vertex="1" parent="1">
          <mxGeometry x="-291" y="-211" width="20" height="26" as="geometry" />
        </mxCell>
        <mxCell id="LIH2WnuuIP5qrIeugnzf-177" value="Project_Team" style="swimlane;fillColor=light-dark(#00994D,var(--ge-dark-color, #121212));startSize=40;" vertex="1" parent="1">
          <mxGeometry x="-120" y="-1037" width="201" height="287" as="geometry" />
        </mxCell>
        <mxCell id="LIH2WnuuIP5qrIeugnzf-178" value="Project_team_ID" style="text;strokeColor=none;fillColor=none;align=left;verticalAlign=top;spacingLeft=4;spacingRight=4;overflow=hidden;rotatable=0;points=[[0,0.5],[1,0.5]];portConstraint=eastwest;whiteSpace=wrap;html=1;" vertex="1" parent="LIH2WnuuIP5qrIeugnzf-177">
          <mxGeometry x="1" y="53" width="139" height="26" as="geometry" />
        </mxCell>
        <mxCell id="LIH2WnuuIP5qrIeugnzf-179" value="Project_ID" style="text;strokeColor=none;fillColor=#FF8000;align=left;verticalAlign=top;spacingLeft=4;spacingRight=4;overflow=hidden;rotatable=0;points=[[0,0.5],[1,0.5]];portConstraint=eastwest;whiteSpace=wrap;html=1;" vertex="1" parent="LIH2WnuuIP5qrIeugnzf-177">
          <mxGeometry y="93" width="119" height="37" as="geometry" />
        </mxCell>
        <mxCell id="LIH2WnuuIP5qrIeugnzf-181" value="Assigned_Date" style="text;strokeColor=none;fillColor=none;align=left;verticalAlign=top;spacingLeft=4;spacingRight=4;overflow=hidden;rotatable=0;points=[[0,0.5],[1,0.5]];portConstraint=eastwest;whiteSpace=wrap;html=1;" vertex="1" parent="LIH2WnuuIP5qrIeugnzf-177">
          <mxGeometry x="2" y="168" width="119" height="26" as="geometry" />
        </mxCell>
        <mxCell id="LIH2WnuuIP5qrIeugnzf-182" value="End_date" style="text;strokeColor=none;fillColor=none;align=left;verticalAlign=top;spacingLeft=4;spacingRight=4;overflow=hidden;rotatable=0;points=[[0,0.5],[1,0.5]];portConstraint=eastwest;whiteSpace=wrap;html=1;" vertex="1" parent="LIH2WnuuIP5qrIeugnzf-177">
          <mxGeometry x="2" y="196" width="120" height="26" as="geometry" />
        </mxCell>
        <mxCell id="LIH2WnuuIP5qrIeugnzf-184" value="Employee_ID" style="text;strokeColor=none;fillColor=#6666FF;align=left;verticalAlign=top;spacingLeft=4;spacingRight=4;overflow=hidden;rotatable=0;points=[[0,0.5],[1,0.5]];portConstraint=eastwest;whiteSpace=wrap;html=1;" vertex="1" parent="LIH2WnuuIP5qrIeugnzf-177">
          <mxGeometry x="1" y="131" width="118" height="30" as="geometry" />
        </mxCell>
        <mxCell id="LIH2WnuuIP5qrIeugnzf-224" value="" style="endArrow=none;html=1;rounded=0;" edge="1" parent="LIH2WnuuIP5qrIeugnzf-177">
          <mxGeometry width="50" height="50" relative="1" as="geometry">
            <mxPoint y="130" as="sourcePoint" />
            <mxPoint x="200" y="130" as="targetPoint" />
          </mxGeometry>
        </mxCell>
        <mxCell id="LIH2WnuuIP5qrIeugnzf-225" value="" style="endArrow=none;html=1;rounded=0;" edge="1" parent="LIH2WnuuIP5qrIeugnzf-177">
          <mxGeometry width="50" height="50" relative="1" as="geometry">
            <mxPoint y="93" as="sourcePoint" />
            <mxPoint x="200" y="93" as="targetPoint" />
          </mxGeometry>
        </mxCell>
        <mxCell id="LIH2WnuuIP5qrIeugnzf-226" value="" style="endArrow=none;html=1;rounded=0;exitX=0.971;exitY=1.148;exitDx=0;exitDy=0;exitPerimeter=0;" edge="1" parent="LIH2WnuuIP5qrIeugnzf-177" source="BjBpJX-8BuaDXUs7vQdQ-7">
          <mxGeometry width="50" height="50" relative="1" as="geometry">
            <mxPoint x="121" y="270" as="sourcePoint" />
            <mxPoint x="121" y="40" as="targetPoint" />
          </mxGeometry>
        </mxCell>
        <mxCell id="LIH2WnuuIP5qrIeugnzf-227" value="Object" style="text;strokeColor=none;fillColor=#FF8000;align=left;verticalAlign=top;spacingLeft=4;spacingRight=4;overflow=hidden;rotatable=0;points=[[0,0.5],[1,0.5]];portConstraint=eastwest;whiteSpace=wrap;html=1;" vertex="1" parent="LIH2WnuuIP5qrIeugnzf-177">
          <mxGeometry x="120" y="94" width="80" height="36" as="geometry" />
        </mxCell>
        <mxCell id="LIH2WnuuIP5qrIeugnzf-228" value="Array" style="text;strokeColor=none;fillColor=#6666FF;align=left;verticalAlign=top;spacingLeft=4;spacingRight=4;overflow=hidden;rotatable=0;points=[[0,0.5],[1,0.5]];portConstraint=eastwest;whiteSpace=wrap;html=1;" vertex="1" parent="LIH2WnuuIP5qrIeugnzf-177">
          <mxGeometry x="121" y="131" width="79" height="33" as="geometry" />
        </mxCell>
        <mxCell id="LIH2WnuuIP5qrIeugnzf-230" value="Date" style="text;strokeColor=none;fillColor=none;align=left;verticalAlign=top;spacingLeft=4;spacingRight=4;overflow=hidden;rotatable=0;points=[[0,0.5],[1,0.5]];portConstraint=eastwest;whiteSpace=wrap;html=1;" vertex="1" parent="LIH2WnuuIP5qrIeugnzf-177">
          <mxGeometry x="122" y="198" width="69" height="22" as="geometry" />
        </mxCell>
        <mxCell id="LIH2WnuuIP5qrIeugnzf-231" value="Date" style="text;strokeColor=none;fillColor=none;align=left;verticalAlign=top;spacingLeft=4;spacingRight=4;overflow=hidden;rotatable=0;points=[[0,0.5],[1,0.5]];portConstraint=eastwest;whiteSpace=wrap;html=1;" vertex="1" parent="LIH2WnuuIP5qrIeugnzf-177">
          <mxGeometry x="121" y="167" width="69" height="26" as="geometry" />
        </mxCell>
        <mxCell id="LIH2WnuuIP5qrIeugnzf-232" value="Int" style="text;strokeColor=none;fillColor=none;align=left;verticalAlign=top;spacingLeft=4;spacingRight=4;overflow=hidden;rotatable=0;points=[[0,0.5],[1,0.5]];portConstraint=eastwest;whiteSpace=wrap;html=1;" vertex="1" parent="LIH2WnuuIP5qrIeugnzf-177">
          <mxGeometry x="120" y="53" width="81" height="26" as="geometry" />
        </mxCell>
        <mxCell id="LIH2WnuuIP5qrIeugnzf-233" value="" style="endArrow=none;html=1;rounded=0;" edge="1" parent="LIH2WnuuIP5qrIeugnzf-177">
          <mxGeometry width="50" height="50" relative="1" as="geometry">
            <mxPoint y="161" as="sourcePoint" />
            <mxPoint x="200" y="161" as="targetPoint" />
          </mxGeometry>
        </mxCell>
        <mxCell id="BjBpJX-8BuaDXUs7vQdQ-5" value="create_at" style="text;strokeColor=none;fillColor=none;align=left;verticalAlign=top;spacingLeft=4;spacingRight=4;overflow=hidden;rotatable=0;points=[[0,0.5],[1,0.5]];portConstraint=eastwest;whiteSpace=wrap;html=1;" vertex="1" parent="LIH2WnuuIP5qrIeugnzf-177">
          <mxGeometry x="1" y="225" width="120" height="26" as="geometry" />
        </mxCell>
        <mxCell id="BjBpJX-8BuaDXUs7vQdQ-6" value="Date" style="text;strokeColor=none;fillColor=none;align=left;verticalAlign=top;spacingLeft=4;spacingRight=4;overflow=hidden;rotatable=0;points=[[0,0.5],[1,0.5]];portConstraint=eastwest;whiteSpace=wrap;html=1;" vertex="1" parent="LIH2WnuuIP5qrIeugnzf-177">
          <mxGeometry x="121" y="225" width="69" height="26" as="geometry" />
        </mxCell>
        <mxCell id="BjBpJX-8BuaDXUs7vQdQ-7" value="update_at" style="text;strokeColor=none;fillColor=none;align=left;verticalAlign=top;spacingLeft=4;spacingRight=4;overflow=hidden;rotatable=0;points=[[0,0.5],[1,0.5]];portConstraint=eastwest;whiteSpace=wrap;html=1;" vertex="1" parent="LIH2WnuuIP5qrIeugnzf-177">
          <mxGeometry x="2" y="254" width="121" height="26" as="geometry" />
        </mxCell>
        <mxCell id="BjBpJX-8BuaDXUs7vQdQ-8" value="Date" style="text;strokeColor=none;fillColor=none;align=left;verticalAlign=top;spacingLeft=4;spacingRight=4;overflow=hidden;rotatable=0;points=[[0,0.5],[1,0.5]];portConstraint=eastwest;whiteSpace=wrap;html=1;" vertex="1" parent="LIH2WnuuIP5qrIeugnzf-177">
          <mxGeometry x="123" y="255" width="69" height="26" as="geometry" />
        </mxCell>
        <mxCell id="LIH2WnuuIP5qrIeugnzf-118" value="" style="endArrow=none;html=1;rounded=0;entryX=-0.006;entryY=-0.115;entryDx=0;entryDy=0;entryPerimeter=0;" edge="1" parent="1">
          <mxGeometry width="50" height="50" relative="1" as="geometry">
            <mxPoint x="7" y="-386" as="sourcePoint" />
            <mxPoint x="7.014000000000124" y="-639.99" as="targetPoint" />
          </mxGeometry>
        </mxCell>
        <mxCell id="LIH2WnuuIP5qrIeugnzf-187" value="" style="html=1;verticalAlign=bottom;endArrow=block;curved=0;rounded=0;exitX=1;exitY=0.5;exitDx=0;exitDy=0;" edge="1" parent="1" source="LIH2WnuuIP5qrIeugnzf-185">
          <mxGeometry width="80" relative="1" as="geometry">
            <mxPoint x="90" y="-420" as="sourcePoint" />
            <mxPoint x="350" y="-610" as="targetPoint" />
            <Array as="points">
              <mxPoint x="240" y="-431" />
              <mxPoint x="240" y="-610" />
            </Array>
          </mxGeometry>
        </mxCell>
        <mxCell id="LIH2WnuuIP5qrIeugnzf-188" value="1" style="text;strokeColor=none;fillColor=none;align=left;verticalAlign=top;spacingLeft=4;spacingRight=4;overflow=hidden;rotatable=0;points=[[0,0.5],[1,0.5]];portConstraint=eastwest;whiteSpace=wrap;html=1;" vertex="1" parent="1">
          <mxGeometry x="96" y="-460" width="20" height="26" as="geometry" />
        </mxCell>
        <mxCell id="LIH2WnuuIP5qrIeugnzf-189" value="M" style="text;strokeColor=none;fillColor=none;align=left;verticalAlign=top;spacingLeft=4;spacingRight=4;overflow=hidden;rotatable=0;points=[[0,0.5],[1,0.5]];portConstraint=eastwest;whiteSpace=wrap;html=1;" vertex="1" parent="1">
          <mxGeometry x="330" y="-640" width="20" height="26" as="geometry" />
        </mxCell>
        <mxCell id="LIH2WnuuIP5qrIeugnzf-191" value="KPI" style="swimlane;fillColor=light-dark(#9999FF,var(--ge-dark-color, #121212));startSize=40;" vertex="1" parent="1">
          <mxGeometry x="-790" y="-251" width="200" height="290" as="geometry" />
        </mxCell>
        <mxCell id="LIH2WnuuIP5qrIeugnzf-192" value="KPI_ID" style="text;strokeColor=none;fillColor=none;align=left;verticalAlign=top;spacingLeft=4;spacingRight=4;overflow=hidden;rotatable=0;points=[[0,0.5],[1,0.5]];portConstraint=eastwest;whiteSpace=wrap;html=1;" vertex="1" parent="LIH2WnuuIP5qrIeugnzf-191">
          <mxGeometry x="1" y="53" width="60" height="26" as="geometry" />
        </mxCell>
        <mxCell id="LIH2WnuuIP5qrIeugnzf-194" value="Total_Actual_Time" style="text;strokeColor=none;fillColor=none;align=left;verticalAlign=top;spacingLeft=4;spacingRight=4;overflow=hidden;rotatable=0;points=[[0,0.5],[1,0.5]];portConstraint=eastwest;whiteSpace=wrap;html=1;" vertex="1" parent="LIH2WnuuIP5qrIeugnzf-191">
          <mxGeometry y="90" width="110" height="26" as="geometry" />
        </mxCell>
        <mxCell id="LIH2WnuuIP5qrIeugnzf-195" value="Total_Estimated_Time" style="text;strokeColor=none;fillColor=none;align=left;verticalAlign=top;spacingLeft=4;spacingRight=4;overflow=hidden;rotatable=0;points=[[0,0.5],[1,0.5]];portConstraint=eastwest;whiteSpace=wrap;html=1;" vertex="1" parent="LIH2WnuuIP5qrIeugnzf-191">
          <mxGeometry x="1" y="130" width="139" height="26" as="geometry" />
        </mxCell>
        <mxCell id="LIH2WnuuIP5qrIeugnzf-196" value="Employee_Rating" style="text;strokeColor=none;fillColor=none;align=left;verticalAlign=top;spacingLeft=4;spacingRight=4;overflow=hidden;rotatable=0;points=[[0,0.5],[1,0.5]];portConstraint=eastwest;whiteSpace=wrap;html=1;" vertex="1" parent="LIH2WnuuIP5qrIeugnzf-191">
          <mxGeometry x="1" y="170" width="120" height="26" as="geometry" />
        </mxCell>
        <mxCell id="LIH2WnuuIP5qrIeugnzf-199" value="Task_completed" style="text;strokeColor=none;fillColor=none;align=left;verticalAlign=top;spacingLeft=4;spacingRight=4;overflow=hidden;rotatable=0;points=[[0,0.5],[1,0.5]];portConstraint=eastwest;whiteSpace=wrap;html=1;" vertex="1" parent="LIH2WnuuIP5qrIeugnzf-191">
          <mxGeometry x="1" y="206" width="120" height="26" as="geometry" />
        </mxCell>
        <mxCell id="LIH2WnuuIP5qrIeugnzf-200" value="Total_Tasks_assigned" style="text;strokeColor=none;fillColor=none;align=left;verticalAlign=top;spacingLeft=4;spacingRight=4;overflow=hidden;rotatable=0;points=[[0,0.5],[1,0.5]];portConstraint=eastwest;whiteSpace=wrap;html=1;" vertex="1" parent="LIH2WnuuIP5qrIeugnzf-191">
          <mxGeometry x="1" y="246" width="129" height="24" as="geometry" />
        </mxCell>
        <mxCell id="Rqi-fr4D4mHZzR1DRXAW-22" value="Int" style="text;strokeColor=none;fillColor=none;align=left;verticalAlign=top;spacingLeft=4;spacingRight=4;overflow=hidden;rotatable=0;points=[[0,0.5],[1,0.5]];portConstraint=eastwest;whiteSpace=wrap;html=1;" vertex="1" parent="LIH2WnuuIP5qrIeugnzf-191">
          <mxGeometry x="140" y="170" width="40" height="26" as="geometry" />
        </mxCell>
        <mxCell id="Rqi-fr4D4mHZzR1DRXAW-23" value="Int" style="text;strokeColor=none;fillColor=none;align=left;verticalAlign=top;spacingLeft=4;spacingRight=4;overflow=hidden;rotatable=0;points=[[0,0.5],[1,0.5]];portConstraint=eastwest;whiteSpace=wrap;html=1;" vertex="1" parent="LIH2WnuuIP5qrIeugnzf-191">
          <mxGeometry x="140" y="206" width="40" height="26" as="geometry" />
        </mxCell>
        <mxCell id="Rqi-fr4D4mHZzR1DRXAW-24" value="Int" style="text;strokeColor=none;fillColor=none;align=left;verticalAlign=top;spacingLeft=4;spacingRight=4;overflow=hidden;rotatable=0;points=[[0,0.5],[1,0.5]];portConstraint=eastwest;whiteSpace=wrap;html=1;" vertex="1" parent="LIH2WnuuIP5qrIeugnzf-191">
          <mxGeometry x="140" y="244" width="40" height="26" as="geometry" />
        </mxCell>
        <mxCell id="Rqi-fr4D4mHZzR1DRXAW-25" value="Int" style="text;strokeColor=none;fillColor=none;align=left;verticalAlign=top;spacingLeft=4;spacingRight=4;overflow=hidden;rotatable=0;points=[[0,0.5],[1,0.5]];portConstraint=eastwest;whiteSpace=wrap;html=1;" vertex="1" parent="LIH2WnuuIP5qrIeugnzf-191">
          <mxGeometry x="140" y="51" width="40" height="26" as="geometry" />
        </mxCell>
        <mxCell id="Rqi-fr4D4mHZzR1DRXAW-30" value="Float" style="text;strokeColor=none;fillColor=none;align=left;verticalAlign=top;spacingLeft=4;spacingRight=4;overflow=hidden;rotatable=0;points=[[0,0.5],[1,0.5]];portConstraint=eastwest;whiteSpace=wrap;html=1;" vertex="1" parent="LIH2WnuuIP5qrIeugnzf-191">
          <mxGeometry x="140" y="132" width="40" height="26" as="geometry" />
        </mxCell>
        <mxCell id="Rqi-fr4D4mHZzR1DRXAW-31" value="Float" style="text;strokeColor=none;fillColor=none;align=left;verticalAlign=top;spacingLeft=4;spacingRight=4;overflow=hidden;rotatable=0;points=[[0,0.5],[1,0.5]];portConstraint=eastwest;whiteSpace=wrap;html=1;" vertex="1" parent="LIH2WnuuIP5qrIeugnzf-191">
          <mxGeometry x="140" y="90" width="40" height="26" as="geometry" />
        </mxCell>
        <mxCell id="LIH2WnuuIP5qrIeugnzf-203" value="KPI" style="text;strokeColor=none;fillColor=#9999FF;align=left;verticalAlign=top;spacingLeft=4;spacingRight=4;overflow=hidden;rotatable=0;points=[[0,0.5],[1,0.5]];portConstraint=eastwest;whiteSpace=wrap;html=1;" vertex="1" parent="1">
          <mxGeometry x="-511" y="-349" width="120" height="26" as="geometry" />
        </mxCell>
        <mxCell id="LIH2WnuuIP5qrIeugnzf-206" value="embeded" style="endArrow=open;endSize=12;dashed=1;html=1;rounded=0;entryX=0.996;entryY=0.073;entryDx=0;entryDy=0;entryPerimeter=0;" edge="1" parent="1" target="LIH2WnuuIP5qrIeugnzf-191">
          <mxGeometry x="-0.0197" y="-30" width="160" relative="1" as="geometry">
            <mxPoint x="-520" y="-340" as="sourcePoint" />
            <mxPoint x="-620" y="-273.5" as="targetPoint" />
            <Array as="points">
              <mxPoint x="-560" y="-340" />
              <mxPoint x="-560" y="-230" />
            </Array>
            <mxPoint as="offset" />
          </mxGeometry>
        </mxCell>
        <mxCell id="LIH2WnuuIP5qrIeugnzf-202" value="" style="endArrow=none;html=1;rounded=0;" edge="1" parent="1">
          <mxGeometry width="50" height="50" relative="1" as="geometry">
            <mxPoint x="-653" y="39" as="sourcePoint" />
            <mxPoint x="-653" y="-211" as="targetPoint" />
          </mxGeometry>
        </mxCell>
        <mxCell id="LIH2WnuuIP5qrIeugnzf-204" value="Object" style="text;strokeColor=none;fillColor=#9999FF;align=left;verticalAlign=top;spacingLeft=4;spacingRight=4;overflow=hidden;rotatable=0;points=[[0,0.5],[1,0.5]];portConstraint=eastwest;whiteSpace=wrap;html=1;" vertex="1" parent="1">
          <mxGeometry x="-390" y="-349" width="77" height="26" as="geometry" />
        </mxCell>
        <mxCell id="LIH2WnuuIP5qrIeugnzf-207" value="1" style="text;strokeColor=none;fillColor=none;align=left;verticalAlign=top;spacingLeft=4;spacingRight=4;overflow=hidden;rotatable=0;points=[[0,0.5],[1,0.5]];portConstraint=eastwest;whiteSpace=wrap;html=1;" vertex="1" parent="1">
          <mxGeometry x="-550" y="-379" width="20" height="26" as="geometry" />
        </mxCell>
        <mxCell id="LIH2WnuuIP5qrIeugnzf-208" value="1" style="text;strokeColor=none;fillColor=none;align=left;verticalAlign=top;spacingLeft=4;spacingRight=4;overflow=hidden;rotatable=0;points=[[0,0.5],[1,0.5]];portConstraint=eastwest;whiteSpace=wrap;html=1;" vertex="1" parent="1">
          <mxGeometry x="-580" y="-220" width="20" height="26" as="geometry" />
        </mxCell>
        <mxCell id="LIH2WnuuIP5qrIeugnzf-211" value="" style="html=1;verticalAlign=bottom;endArrow=block;curved=0;rounded=0;entryX=0.567;entryY=0;entryDx=0;entryDy=0;entryPerimeter=0;" edge="1" parent="1" target="LIH2WnuuIP5qrIeugnzf-102">
          <mxGeometry width="80" relative="1" as="geometry">
            <mxPoint x="80" y="-920" as="sourcePoint" />
            <mxPoint x="-120" y="-600" as="targetPoint" />
            <Array as="points">
              <mxPoint x="120" y="-920" />
              <mxPoint x="120" y="-740" />
              <mxPoint x="120" y="-690" />
              <mxPoint x="60" y="-690" />
              <mxPoint y="-690" />
            </Array>
          </mxGeometry>
        </mxCell>
        <mxCell id="LIH2WnuuIP5qrIeugnzf-212" value="1" style="text;strokeColor=none;fillColor=none;align=left;verticalAlign=top;spacingLeft=4;spacingRight=4;overflow=hidden;rotatable=0;points=[[0,0.5],[1,0.5]];portConstraint=eastwest;whiteSpace=wrap;html=1;" vertex="1" parent="1">
          <mxGeometry x="20" y="-716" width="20" height="26" as="geometry" />
        </mxCell>
        <mxCell id="LIH2WnuuIP5qrIeugnzf-214" value="1" style="text;strokeColor=none;fillColor=none;align=left;verticalAlign=top;spacingLeft=4;spacingRight=4;overflow=hidden;rotatable=0;points=[[0,0.5],[1,0.5]];portConstraint=eastwest;whiteSpace=wrap;html=1;" vertex="1" parent="1">
          <mxGeometry x="85.5" y="-950" width="20" height="26" as="geometry" />
        </mxCell>
        <mxCell id="LIH2WnuuIP5qrIeugnzf-215" value="" style="html=1;verticalAlign=bottom;endArrow=block;curved=0;rounded=0;" edge="1" parent="1">
          <mxGeometry width="80" relative="1" as="geometry">
            <mxPoint x="-120" y="-883" as="sourcePoint" />
            <mxPoint x="-400" y="-683" as="targetPoint" />
            <Array as="points">
              <mxPoint x="-220" y="-883" />
              <mxPoint x="-400" y="-883" />
            </Array>
          </mxGeometry>
        </mxCell>
        <mxCell id="LIH2WnuuIP5qrIeugnzf-216" value="1" style="text;strokeColor=none;fillColor=none;align=left;verticalAlign=top;spacingLeft=4;spacingRight=4;overflow=hidden;rotatable=0;points=[[0,0.5],[1,0.5]];portConstraint=eastwest;whiteSpace=wrap;html=1;" vertex="1" parent="1">
          <mxGeometry x="-425" y="-716" width="20" height="26" as="geometry" />
        </mxCell>
        <mxCell id="LIH2WnuuIP5qrIeugnzf-217" value="M" style="text;strokeColor=none;fillColor=none;align=left;verticalAlign=top;spacingLeft=4;spacingRight=4;overflow=hidden;rotatable=0;points=[[0,0.5],[1,0.5]];portConstraint=eastwest;whiteSpace=wrap;html=1;" vertex="1" parent="1">
          <mxGeometry x="-140" y="-910" width="20" height="26" as="geometry" />
        </mxCell>
        <mxCell id="LIH2WnuuIP5qrIeugnzf-219" value="1" style="text;strokeColor=none;fillColor=none;align=left;verticalAlign=top;spacingLeft=4;spacingRight=4;overflow=hidden;rotatable=0;points=[[0,0.5],[1,0.5]];portConstraint=eastwest;whiteSpace=wrap;html=1;" vertex="1" parent="1">
          <mxGeometry x="-140" y="-550" width="20" height="26" as="geometry" />
        </mxCell>
        <mxCell id="LIH2WnuuIP5qrIeugnzf-220" value="" style="html=1;verticalAlign=bottom;endArrow=block;curved=0;rounded=0;entryX=0.995;entryY=0.056;entryDx=0;entryDy=0;entryPerimeter=0;exitX=0;exitY=0.5;exitDx=0;exitDy=0;" edge="1" parent="1" source="LIH2WnuuIP5qrIeugnzf-102">
          <mxGeometry width="80" relative="1" as="geometry">
            <mxPoint x="-120" y="-844" as="sourcePoint" />
            <mxPoint x="-312" y="-662.1599999999999" as="targetPoint" />
            <Array as="points">
              <mxPoint x="-160" y="-530" />
              <mxPoint x="-160" y="-660" />
              <mxPoint x="-240" y="-662" />
              <mxPoint x="-280" y="-662" />
            </Array>
          </mxGeometry>
        </mxCell>
        <mxCell id="LIH2WnuuIP5qrIeugnzf-221" value="1" style="text;strokeColor=none;fillColor=none;align=left;verticalAlign=top;spacingLeft=4;spacingRight=4;overflow=hidden;rotatable=0;points=[[0,0.5],[1,0.5]];portConstraint=eastwest;whiteSpace=wrap;html=1;" vertex="1" parent="1">
          <mxGeometry x="-300" y="-690" width="20" height="26" as="geometry" />
        </mxCell>
        <mxCell id="Rqi-fr4D4mHZzR1DRXAW-1" value="" style="html=1;verticalAlign=bottom;endArrow=block;curved=0;rounded=0;entryX=1.005;entryY=0.103;entryDx=0;entryDy=0;entryPerimeter=0;" edge="1" parent="1" target="LIH2WnuuIP5qrIeugnzf-110">
          <mxGeometry width="80" relative="1" as="geometry">
            <mxPoint x="360" y="-170" as="sourcePoint" />
            <mxPoint x="-200" y="-390" as="targetPoint" />
            <Array as="points">
              <mxPoint x="200" y="-170" />
              <mxPoint x="200" y="-60" />
              <mxPoint x="-200" y="-60" />
              <mxPoint x="-200" y="-640" />
            </Array>
          </mxGeometry>
        </mxCell>
        <mxCell id="Rqi-fr4D4mHZzR1DRXAW-2" value="1" style="text;strokeColor=none;fillColor=none;align=left;verticalAlign=top;spacingLeft=4;spacingRight=4;overflow=hidden;rotatable=0;points=[[0,0.5],[1,0.5]];portConstraint=eastwest;whiteSpace=wrap;html=1;" vertex="1" parent="1">
          <mxGeometry x="-300" y="-640" width="20" height="26" as="geometry" />
        </mxCell>
        <mxCell id="Rqi-fr4D4mHZzR1DRXAW-3" value="M" style="text;strokeColor=none;fillColor=none;align=left;verticalAlign=top;spacingLeft=4;spacingRight=4;overflow=hidden;rotatable=0;points=[[0,0.5],[1,0.5]];portConstraint=eastwest;whiteSpace=wrap;html=1;" vertex="1" parent="1">
          <mxGeometry x="333" y="-195" width="20" height="26" as="geometry" />
        </mxCell>
        <mxCell id="LIH2WnuuIP5qrIeugnzf-237" value="Int" style="text;strokeColor=none;fillColor=none;align=left;verticalAlign=top;spacingLeft=4;spacingRight=4;overflow=hidden;rotatable=0;points=[[0,0.5],[1,0.5]];portConstraint=eastwest;whiteSpace=wrap;html=1;" vertex="1" parent="1">
          <mxGeometry x="483" y="-987" width="44.5" height="26" as="geometry" />
        </mxCell>
        <mxCell id="BjBpJX-8BuaDXUs7vQdQ-3" value="update_at" style="text;strokeColor=none;fillColor=none;align=left;verticalAlign=top;spacingLeft=4;spacingRight=4;overflow=hidden;rotatable=0;points=[[0,0.5],[1,0.5]];portConstraint=eastwest;whiteSpace=wrap;html=1;" vertex="1" parent="1">
          <mxGeometry x="-509" y="-380" width="121" height="26" as="geometry" />
        </mxCell>
        <mxCell id="BjBpJX-8BuaDXUs7vQdQ-4" value="Date" style="text;strokeColor=none;fillColor=none;align=left;verticalAlign=top;spacingLeft=4;spacingRight=4;overflow=hidden;rotatable=0;points=[[0,0.5],[1,0.5]];portConstraint=eastwest;whiteSpace=wrap;html=1;" vertex="1" parent="1">
          <mxGeometry x="-390" y="-380" width="69" height="26" as="geometry" />
        </mxCell>
      </root>
    </mxGraphModel>
  </diagram>
</mxfile>
